<?xml version="1.0" standalone="no"?>
<!DOCTYPE svg PUBLIC "-//W3C//DTD SVG 20010904//EN"
 "http://www.w3.org/TR/2001/REC-SVG-20010904/DTD/svg10.dtd">
<svg version="1.0" xmlns="http://www.w3.org/2000/svg"
 width="444.000000pt" height="450.000000pt" viewBox="0 0 444.000000 450.000000"
 preserveAspectRatio="xMidYMid meet">

<g transform="translate(0.000000,450.000000) scale(0.100000,-0.100000)"
fill="#000000" stroke="none">
<path d="M2047 4290 c-957 -86 -1724 -836 -1836 -1795 -14 -116 -14 -329 0
-453 73 -680 500 -1289 1114 -1592 205 -102 407 -163 633 -195 139 -19 405
-19 527 0 50 8 106 17 127 19 124 17 358 96 513 173 602 300 1005 853 1111
1523 23 144 23 447 0 595 -68 439 -262 822 -575 1136 -313 312 -707 512 -1131
573 -136 20 -359 27 -483 16z m423 -30 c121 -15 133 -18 256 -49 792 -206
1372 -857 1490 -1671 23 -158 15 -499 -15 -644 -134 -648 -534 -1165 -1119
-1444 -983 -468 -2163 -55 -2653 928 -171 343 -239 737 -194 1121 86 739 581
1373 1283 1644 139 53 349 104 492 118 82 9 382 6 460 -3z"/>
<path d="M2020 4187 c-57 -30 -85 -68 -85 -117 l0 -39 -18 29 c-10 16 -39 39
-63 51 -59 28 -125 21 -214 -23 -48 -24 -76 -32 -106 -30 -27 3 -44 -2 -53
-12 -11 -13 -11 -17 3 -22 9 -3 25 -4 36 -1 17 4 14 -3 -16 -46 -21 -29 -46
-61 -56 -72 -16 -18 -18 -18 -18 -2 0 35 -29 75 -59 82 -66 14 -152 -56 -150
-123 l1 -37 8 38 c21 109 180 149 180 46 0 -17 -5 -40 -12 -52 -15 -30 -59
-67 -79 -67 -22 0 -43 26 -35 45 3 9 2 13 -4 10 -18 -11 -10 -44 14 -60 20
-13 29 -14 46 -5 20 11 21 10 13 -12 -4 -12 -8 -49 -8 -80 0 -32 -4 -58 -8
-58 -16 0 -82 31 -101 48 -20 17 -20 17 -5 -8 10 -15 40 -34 75 -47 37 -15 76
-40 106 -70 62 -61 71 -51 11 13 -46 49 -73 98 -73 131 0 29 55 135 90 173
l31 35 -6 -38 c-8 -50 -8 -186 1 -246 3 -25 15 -77 27 -116 13 -42 21 -100 21
-145 1 -67 -3 -83 -38 -155 -21 -44 -45 -96 -52 -115 l-13 -35 -1 30 c0 35 18
102 50 189 26 71 21 116 -16 153 -23 23 -32 25 -86 21 -53 -4 -65 -9 -89 -36
-37 -41 -38 -84 -4 -117 28 -29 11 -34 -35 -10 -60 31 -63 66 -15 166 26 55
35 86 35 126 0 50 -2 54 -36 76 -30 18 -40 34 -59 92 -21 66 -45 98 -62 81 -4
-4 3 -15 16 -25 23 -17 23 -20 20 -162 -2 -79 -1 -149 4 -156 11 -18 -27 -97
-67 -137 -20 -20 -59 -47 -86 -61 l-48 -25 9 33 c6 17 13 80 16 139 6 99 7
106 24 95 10 -6 21 -8 25 -5 9 10 -16 79 -32 85 -22 8 -18 101 6 140 36 60 89
67 109 15 l9 -27 1 27 c1 19 -7 33 -23 43 -22 14 -28 15 -60 1 -55 -23 -80
-85 -74 -187 l5 -78 -28 20 c-36 25 -102 25 -145 -1 -66 -42 -95 -160 -54
-227 19 -32 19 -32 0 -38 -35 -11 -44 -42 -26 -86 16 -39 16 -41 -6 -67 l-22
-27 -32 33 c-18 17 -41 32 -51 32 -30 0 -43 20 -43 65 0 28 6 47 18 58 38 34
92 11 92 -39 0 -14 4 -22 10 -19 16 10 11 44 -10 65 -28 28 -81 26 -108 -3
-23 -24 -29 -80 -13 -106 7 -11 0 -19 -29 -32 -45 -20 -60 -44 -60 -93 0 -40
40 -80 72 -70 12 3 25 -2 36 -14 16 -18 72 -39 72 -27 0 3 -7 21 -14 40 -13
31 -25 40 -48 36 -5 0 -8 7 -8 16 0 13 -4 11 -13 -7 -8 -16 -23 -26 -40 -28
-22 -3 -29 2 -37 24 -12 32 -5 61 22 91 28 30 69 37 112 19 42 -17 60 -52 71
-131 10 -78 14 -92 31 -109 14 -15 13 -16 -12 -16 -16 0 -62 12 -104 27 -50
17 -84 24 -102 20 -42 -11 -87 -54 -94 -92 -4 -24 -12 -35 -30 -39 -27 -7 -47
-38 -42 -68 3 -20 5 -19 39 13 26 24 38 46 42 76 8 51 53 93 99 93 35 0 138
-31 138 -42 0 -3 -12 -9 -28 -12 -111 -25 -307 -290 -319 -432 -9 -114 57
-236 120 -220 48 12 59 46 62 197 3 131 16 209 35 209 18 0 22 -59 6 -82 -18
-26 -21 -100 -5 -129 5 -11 10 -67 11 -124 0 -95 2 -105 23 -125 15 -14 25
-18 30 -10 9 15 -4 84 -20 107 -8 10 -15 35 -15 55 l0 38 33 -20 c46 -28 83
-26 118 9 61 61 23 161 -61 160 l-35 -1 35 -8 c41 -10 80 -51 80 -85 0 -13
-11 -36 -23 -51 -30 -34 -72 -36 -117 -4 -29 21 -32 26 -26 61 9 58 45 146 72
178 13 16 49 38 81 50 61 22 186 42 203 31 6 -3 -1 -21 -15 -42 -101 -149 2
-340 152 -283 28 11 52 29 64 49 24 40 24 39 -12 80 -17 20 -28 40 -24 46 11
17 59 11 72 -9 11 -17 22 -18 121 -13 l108 5 13 -32 c12 -28 11 -34 -17 -78
-44 -70 -50 -102 -54 -265 -4 -141 3 -189 15 -112 11 65 53 120 131 174 76 51
116 91 116 118 0 8 19 33 43 56 23 23 56 59 72 80 26 34 36 39 82 43 58 6 107
-3 98 -17 -3 -6 -22 -10 -41 -10 -46 0 -92 -20 -138 -60 -48 -42 -66 -79 -66
-131 0 -23 -14 -83 -31 -134 -34 -105 -32 -128 19 -233 14 -28 22 -55 18 -59
-10 -10 -45 37 -46 60 0 9 -5 17 -12 17 -6 0 -20 8 -31 18 -17 14 -19 14 -15
2 4 -11 -1 -16 -13 -17 -30 -3 -25 63 8 112 l26 40 -26 -24 c-15 -13 -29 -32
-33 -43 -3 -10 -10 -18 -15 -18 -15 0 19 58 60 104 48 51 61 77 60 113 l0 28
-10 -25 c-15 -37 -36 -57 -115 -110 -82 -56 -132 -110 -141 -151 -5 -26 -9
-29 -46 -29 -39 0 -40 -1 -23 -19 21 -23 32 -121 19 -171 -12 -47 -58 -74 -93
-57 -24 12 -25 16 -28 130 l-3 117 -47 -1 c-46 0 -46 -1 -24 -16 20 -14 22
-23 22 -118 0 -86 3 -107 19 -126 24 -30 80 -31 120 -1 38 28 41 28 41 -3 0
-23 4 -25 42 -25 l42 0 -22 20 c-20 19 -22 31 -22 120 0 55 4 102 10 105 6 3
10 14 10 24 0 23 53 97 80 111 17 9 15 0 -16 -67 -34 -73 -64 -155 -64 -175 0
-21 17 -4 33 35 9 23 26 53 37 67 l20 25 0 -55 c0 -30 2 -73 5 -95 l5 -40 -14
35 c-8 19 -15 45 -15 58 -1 36 -18 26 -36 -22 -12 -30 -15 -60 -12 -93 4 -26
8 -70 10 -98 3 -33 19 -79 46 -132 50 -99 53 -146 16 -253 -45 -134 -31 -195
58 -243 38 -20 56 -22 182 -22 104 0 156 5 200 18 33 10 69 20 80 24 46 13
166 14 221 2 l59 -13 -95 -7 c-52 -4 -122 -14 -155 -23 -89 -23 -249 -39 -335
-33 -61 5 -69 4 -40 -5 19 -5 45 -14 57 -18 24 -10 238 20 331 45 32 9 107 18
167 21 l110 5 -55 -30 c-32 -17 -64 -28 -75 -25 -15 4 -16 3 -6 -4 10 -7 3
-16 -33 -37 -63 -37 -105 -46 -206 -45 -210 3 -340 38 -502 136 -33 20 -92 47
-132 60 l-71 23 46 1 c56 0 108 -17 176 -59 27 -17 52 -31 55 -31 2 0 -18 23
-44 51 -65 69 -68 87 -29 166 17 35 31 78 31 96 0 18 -16 72 -35 120 -19 48
-35 97 -35 109 0 19 -2 20 -10 8 -16 -24 -12 -47 20 -127 17 -41 30 -90 30
-109 0 -28 -37 -123 -56 -143 -2 -3 -17 5 -32 16 -58 43 -98 56 -187 64 l-90
7 105 -4 c58 -2 128 -6 157 -10 49 -6 53 -5 64 19 9 20 8 40 -4 94 -9 37 -18
79 -19 93 l-3 25 -13 -22 c-10 -18 -9 -35 5 -91 21 -89 16 -103 -34 -94 -67
12 -253 8 -261 -5 -15 -23 -149 -51 -201 -42 -72 14 -189 78 -259 143 -54 51
-61 55 -52 30 90 -236 362 -538 655 -727 170 -109 400 -207 595 -253 209 -49
490 -67 690 -45 322 37 625 148 901 332 95 63 154 113 254 213 72 72 146 154
165 181 l34 50 -59 -54 c-33 -30 -60 -57 -60 -61 0 -10 -65 -81 -99 -107 -30
-24 -119 -33 -131 -13 -3 5 3 10 14 10 31 0 118 37 168 71 54 38 51 51 -4 15
-54 -36 -144 -66 -217 -72 -54 -5 -168 7 -421 47 -125 19 -173 21 -261 10
-111 -14 -249 -1 -350 31 -38 12 -72 22 -76 22 -14 2 -135 86 -206 144 -69 56
-122 118 -122 142 0 6 -13 38 -28 73 -30 65 -87 128 -132 147 -25 10 -28 17
-33 77 l-5 66 39 37 c37 35 39 40 39 101 0 82 -23 123 -77 138 -52 15 -63 14
-105 -8 -37 -18 -37 -18 -58 4 -13 14 -26 47 -32 86 -10 60 -9 71 21 167 31
99 35 106 106 180 122 129 211 156 327 99 100 -49 203 -180 211 -269 7 -70
-58 -153 -121 -153 -99 0 -157 128 -85 185 29 22 92 27 111 8 17 -17 15 -45
-5 -57 -16 -9 -16 -10 -2 -11 49 -1 48 70 -1 90 -96 40 -185 -64 -135 -160 30
-58 116 -97 192 -85 51 7 117 61 128 105 6 23 5 23 -13 -5 -33 -52 -75 -82
-119 -89 -44 -6 -60 7 -23 19 23 7 81 75 74 87 -3 4 -1 8 4 8 9 0 18 24 22 55
1 6 7 16 13 23 6 8 11 44 11 80 l0 67 13 -45 c7 -25 15 -58 19 -75 3 -16 8
-25 11 -18 3 8 16 6 46 -7 23 -10 44 -17 46 -14 8 8 -34 58 -67 79 -19 12 -37
37 -48 65 -39 103 -116 188 -201 221 l-28 11 46 12 c89 23 183 97 234 183 16
27 20 30 30 17 7 -10 23 -14 45 -12 l35 3 -32 32 -31 33 36 22 c128 79 412
-25 491 -181 38 -74 36 -175 -5 -215 -8 -8 -14 -18 -13 -22 1 -3 -10 -22 -25
-41 l-27 -34 28 7 c27 7 83 40 83 50 0 3 -15 -4 -34 -15 -43 -27 -55 -27 -29
2 63 70 81 181 44 264 -56 123 -286 247 -424 229 -78 -11 -123 -39 -164 -104
-49 -78 -119 -149 -175 -178 -62 -32 -70 -30 -22 4 54 40 96 90 139 166 48 86
120 148 188 162 76 15 128 15 187 0 106 -27 192 -93 226 -174 8 -19 34 -56 58
-82 24 -26 47 -61 51 -79 8 -38 -2 -121 -15 -121 -5 0 -7 -6 -4 -14 3 -8 1
-17 -5 -21 -6 -3 -11 -12 -11 -18 1 -7 10 -1 20 12 15 17 20 19 20 7 0 -9 6
-13 14 -10 7 3 16 -2 19 -10 9 -24 26 -19 24 7 -2 25 -19 47 -39 47 -11 0 -13
15 -10 64 3 46 0 74 -12 97 -20 40 -20 39 7 39 66 0 92 79 40 120 -32 25 -67
23 -70 -5 -2 -11 0 -14 3 -7 9 20 52 14 68 -10 21 -30 20 -44 -4 -68 -25 -25
-71 -26 -101 -2 l-22 19 16 84 c10 46 17 98 17 116 0 17 4 34 9 38 6 3 9 13 9
23 -1 9 2 34 6 55 5 29 4 37 -8 37 -8 0 -16 -10 -18 -22 -2 -15 -10 -23 -23
-23 -18 0 -20 6 -18 48 3 42 1 47 -18 47 -18 0 -20 -4 -14 -30 4 -16 4 -39 0
-50 -6 -20 -7 -20 -38 4 -63 47 -128 51 -188 11 -47 -31 -52 -68 -9 -73 22 -2
23 -1 8 8 -25 16 -22 39 6 46 31 7 66 -11 66 -36 0 -23 -36 -34 -160 -49 -47
-5 -94 -12 -105 -16 -13 -4 -9 4 15 25 40 36 178 120 197 120 7 0 13 5 13 10
0 25 -240 1 -300 -30 -97 -50 -162 -142 -181 -259 -5 -35 -16 -75 -24 -90 -26
-49 -139 -151 -153 -137 -13 14 -44 132 -46 175 -1 28 -6 46 -15 49 -11 4 -13
-4 -8 -36 4 -34 2 -42 -13 -47 -10 -3 -24 -21 -30 -39 -9 -27 -20 -37 -58 -51
-26 -10 -60 -29 -75 -41 -35 -29 -106 -50 -127 -36 -12 7 -16 33 -18 115 -2
96 -1 108 18 127 40 40 108 10 98 -45 -6 -30 8 -34 17 -5 8 25 -19 70 -44 77
-17 4 -17 7 -2 37 15 31 19 33 57 28 26 -3 44 0 49 8 5 9 2 10 -12 6 -23 -7
-74 9 -85 27 -11 17 -10 61 2 93 l11 27 30 -29 c25 -24 31 -26 39 -14 16 26
11 58 -12 74 -22 15 -22 16 15 31 52 21 104 19 164 -9 59 -28 85 -60 86 -111
1 -37 12 -47 20 -17 3 9 5 -12 6 -48 1 -47 -5 -77 -18 -103 -23 -46 -11 -48
50 -9 59 39 74 56 122 154 36 71 50 88 97 120 86 57 136 70 308 77 120 5 155
9 162 21 5 8 10 12 10 8 0 -8 49 8 115 38 50 22 43 20 150 40 84 15 247 15
335 0 99 -17 240 -84 303 -144 15 -15 42 -55 59 -90 26 -52 32 -78 35 -145 l3
-82 -14 42 c-48 147 -203 277 -391 328 -76 20 -319 33 -329 16 -5 -7 1 -11 13
-11 12 0 21 -6 21 -13 0 -7 9 -18 21 -25 15 -10 20 -21 16 -38 -3 -19 -2 -22
9 -13 17 14 18 61 2 78 -11 11 5 12 87 8 55 -2 123 -10 151 -16 l51 -12 -28
-29 c-33 -33 -35 -39 -14 -66 15 -18 15 -18 9 9 -12 53 45 86 93 52 28 -19 36
-57 23 -105 -20 -73 31 -140 107 -140 72 0 97 71 41 113 -22 17 -30 18 -43 7
-22 -19 -18 -32 6 -18 18 11 23 10 40 -11 23 -28 24 -35 3 -55 -22 -23 -86
-20 -112 4 -26 24 -25 22 -26 121 l-1 75 32 -18 c80 -48 183 -165 183 -210 0
-11 -15 -27 -35 -39 -19 -12 -35 -25 -35 -30 0 -15 58 -10 75 7 9 9 19 13 23
9 4 -4 7 -57 7 -118 -1 -134 -25 -220 -81 -286 -55 -64 -104 -86 -194 -86 -82
0 -134 20 -180 70 l-25 26 22 17 c14 11 22 31 25 60 4 48 -9 55 -42 22 -20
-20 -20 -20 -20 14 0 18 9 45 20 59 24 31 26 45 3 26 -40 -34 -55 -131 -32
-214 26 -93 149 -166 284 -168 104 -1 167 23 237 94 55 55 58 56 58 31 0 -96
134 -161 217 -107 30 20 63 86 63 125 0 31 -37 80 -60 80 -22 0 -50 -21 -50
-38 1 -16 1 -16 11 1 12 20 49 23 67 5 17 -17 15 -83 -3 -118 -39 -76 -166
-79 -205 -5 -20 37 -8 67 40 101 89 64 120 96 130 132 11 43 13 116 3 152 l-7
25 -6 -28 -5 -29 -27 22 -28 21 0 -31 c0 -23 9 -40 30 -60 17 -15 30 -36 30
-47 0 -34 -38 -81 -99 -122 -33 -23 -63 -45 -66 -51 -3 -5 -11 -10 -16 -10
-14 0 -5 26 42 136 27 63 41 112 45 161 6 64 4 74 -16 103 -25 36 -19 62 16
68 23 4 44 30 44 51 -1 12 -3 11 -12 -4 -15 -27 -28 -35 -57 -35 -20 0 -22 3
-13 12 15 15 16 28 2 28 -6 0 -15 -10 -20 -22 -8 -22 -9 -22 -9 -2 -1 12 10
38 24 58 33 49 39 77 20 101 -14 19 -15 19 -6 -6 10 -27 2 -51 -33 -101 -20
-29 -20 -81 0 -119 13 -26 13 -39 3 -87 -19 -92 -59 -214 -85 -258 -35 -62
-107 -116 -184 -139 -19 -5 -15 0 16 23 90 66 130 150 145 306 5 56 12 129 16
163 4 42 0 86 -10 130 -8 38 -18 95 -21 127 -4 33 -15 79 -26 103 -10 24 -17
43 -16 43 2 0 23 -7 47 -15 86 -31 146 -123 105 -163 -15 -15 -18 -14 -43 4
-35 27 -45 69 -14 61 12 -3 21 -1 21 4 0 19 -49 9 -55 -12 -9 -26 38 -79 69
-79 41 0 52 19 48 77 -4 51 -108 132 -170 133 -22 0 -22 1 -8 22 44 63 -11
238 -75 238 -10 0 -20 9 -24 20 -7 21 -56 60 -76 60 -10 0 -10 -3 -1 -12 7 -7
12 -22 12 -34 0 -27 44 -57 71 -49 46 15 113 -117 95 -189 -8 -32 -43 -53 -60
-36 -8 8 -6 9 9 4 17 -6 15 -2 -7 23 -20 20 -28 40 -28 64 0 40 -22 79 -34 61
-9 -16 -26 -15 -26 0 0 7 -12 29 -26 49 -14 20 -36 69 -50 108 -49 140 -81
168 -178 158 -59 -6 -120 -33 -151 -67 l-20 -22 -6 24 c-16 55 -10 116 14 144
28 33 76 37 107 9 25 -22 25 -33 3 -58 -17 -19 -17 -19 2 -16 33 7 32 62 -1
88 -58 46 -134 13 -148 -64 -7 -34 -7 -35 -31 -19 -13 8 -36 14 -52 12 -27 -4
-27 -4 11 -15 56 -17 76 -39 76 -84 0 -36 -3 -40 -49 -64 -27 -13 -52 -33 -56
-44 -11 -36 -46 -71 -70 -71 -31 0 -40 -16 -25 -46 11 -19 10 -27 -4 -48 -9
-14 -16 -45 -16 -70 0 -37 -4 -48 -27 -64 -52 -35 -58 -37 -40 -11 40 56 -2
132 -79 145 -39 6 -39 6 -36 49 3 33 -1 48 -17 64 -27 27 -50 26 -91 -4 -42
-31 -74 -32 -117 -2 -31 21 -42 50 -25 72 4 6 35 10 68 11 151 1 300 132 333
293 10 46 9 59 -6 90 -10 20 -33 46 -52 58 l-34 23 51 0 c43 0 57 -5 84 -29
32 -28 33 -33 36 -113 3 -79 2 -85 -28 -130 -49 -73 -155 -155 -258 -199 -32
-13 -38 -18 -17 -14 17 3 53 17 81 30 60 29 81 31 112 9 33 -23 38 -10 6 15
l-27 21 36 0 c39 0 87 15 87 27 0 5 -23 6 -52 4 l-52 -3 48 41 c26 23 57 41
69 41 12 0 29 5 37 10 12 7 8 10 -15 10 -29 0 -29 0 -8 15 12 9 41 22 65 31
73 25 95 63 68 115 -12 21 -50 25 -68 7 -15 -15 -16 -48 -2 -48 5 0 9 3 9 8
-4 23 4 32 25 32 30 0 40 -14 32 -46 -5 -18 -23 -32 -73 -54 -36 -16 -67 -30
-69 -30 -2 0 1 12 6 26 16 40 12 126 -8 163 -49 98 -171 105 -252 15 l-25 -28
34 24 c48 33 88 31 123 -8 50 -57 32 -140 -46 -209 l-41 -36 38 21 c44 26 48
15 8 -27 -26 -28 -35 -31 -85 -31 -47 0 -61 4 -87 28 -55 50 -26 92 71 104 34
4 30 19 -12 43 -32 18 -34 22 -25 44 9 19 8 26 -5 35 -11 8 -15 20 -11 35 4
16 1 24 -13 27 -11 3 -32 24 -47 46 -16 22 -37 43 -48 45 -10 3 -19 9 -19 13
0 16 -106 44 -165 44 -64 -1 -94 -12 -137 -52 -55 -51 -61 -142 -11 -182 41
-32 54 -26 32 17 -24 47 -24 74 1 105 46 59 140 63 194 9 27 -27 31 -38 31
-84 0 -30 -8 -68 -19 -90 -20 -41 -102 -137 -117 -137 -16 0 -10 19 16 44 14
14 25 34 25 46 0 20 -1 20 -25 4 -14 -9 -25 -23 -25 -30 0 -8 -4 -14 -10 -14
-5 0 -10 6 -10 14 0 25 -50 56 -89 56 -45 0 -77 -21 -96 -63 l-15 -32 6 45 c4
25 10 52 15 61 4 8 4 33 -1 54 -7 33 -6 42 9 56 27 26 36 101 16 139 -31 60
-128 78 -205 37z m161 -13 c42 -21 54 -81 22 -116 -19 -22 -33 -23 -33 -4 0
16 -37 32 -48 21 -4 -4 1 -12 11 -19 24 -18 22 -39 -3 -31 -12 4 -27 1 -35 -5
-15 -12 -35 -6 -35 11 0 5 14 21 30 36 32 28 40 69 18 91 -17 17 -63 15 -101
-4 l-32 -15 25 20 c50 40 121 46 181 15z m356 -20 c69 -23 105 -54 141 -122
38 -71 40 -96 9 -117 -13 -8 -28 -29 -35 -47 -7 -19 -30 -45 -53 -61 -71 -49
-96 -140 -52 -189 15 -16 15 -18 -1 -18 -13 0 -15 -6 -10 -25 7 -27 -12 -35
-33 -14 -14 14 -100 14 -136 0 -39 -15 -43 -14 -24 7 9 9 24 36 34 58 10 23
44 65 75 93 36 33 68 75 87 113 81 162 -6 332 -152 298 -76 -17 -114 -78 -91
-146 l13 -39 -20 24 c-42 51 -12 144 61 182 43 24 123 25 187 3z m-446 -4 c27
-15 24 -38 -10 -69 -39 -36 -46 -63 -22 -85 15 -14 24 -15 39 -7 16 8 24 5 43
-16 l24 -26 -42 7 c-39 6 -43 4 -43 -14 0 -11 12 -38 26 -60 17 -25 29 -60 32
-90 4 -45 2 -52 -27 -81 -28 -27 -37 -31 -68 -26 -27 5 -33 3 -25 -5 19 -19
70 -13 97 12 47 44 50 109 10 203 -6 14 -2 17 18 17 24 0 25 -3 20 -34 -9 -57
5 -103 47 -151 48 -56 58 -100 35 -150 -18 -37 -64 -78 -100 -89 -19 -5 -20
-1 -20 78 0 88 11 116 46 116 30 0 61 -37 57 -68 -2 -22 -8 -27 -31 -27 -31 1
-31 -18 0 -23 43 -6 63 69 28 108 -34 38 -107 19 -116 -30 -1 -8 1 -36 5 -62
12 -71 2 -98 -35 -98 -54 0 -100 29 -121 77 -24 54 -17 94 26 165 17 29 40 71
50 93 22 46 34 135 18 135 -6 0 -32 -24 -59 -54 l-48 -54 1 91 c1 152 10 175
79 211 36 19 40 19 66 6z m-230 -62 c52 -29 74 -76 74 -163 0 -39 -6 -79 -13
-90 -11 -18 -11 -17 -5 10 5 17 8 55 7 86 0 68 -26 117 -74 141 -39 20 -116
23 -169 8 -41 -11 -32 0 12 17 53 19 125 16 168 -9z m-115 -40 c-9 -12 -16
-28 -16 -35 0 -16 36 -53 52 -53 6 0 2 9 -11 21 -29 27 -24 60 12 77 35 17 74
5 101 -32 15 -20 22 -46 24 -101 4 -67 1 -79 -26 -129 -33 -62 -31 -69 10 -29
l28 26 -10 -34 c-17 -57 -12 -160 9 -199 39 -74 130 -107 236 -87 l40 7 -55
-29 c-84 -43 -157 -52 -118 -13 9 9 9 15 0 24 -10 10 -16 8 -30 -5 -15 -15
-15 -19 -2 -27 24 -15 -13 -23 -78 -17 -56 5 -132 33 -132 49 0 13 58 38 90
38 17 0 45 -7 62 -16 16 -9 27 -11 23 -5 -3 6 -23 20 -43 30 -37 19 -105 85
-136 131 -18 28 -21 88 -5 144 16 59 4 102 -46 152 -34 35 -53 46 -95 54 -29
6 -55 10 -58 10 -2 0 7 9 21 20 39 31 88 49 130 50 37 0 38 0 23 -22z m-92
-78 c34 -13 33 -38 -1 -42 -14 -2 -29 -9 -31 -17 -3 -10 2 -13 22 -9 14 3 26
4 26 3 0 -16 -33 -75 -43 -76 -29 -3 -53 4 -71 19 -16 14 -18 14 -14 2 8 -24
51 -44 82 -36 15 4 35 21 46 39 17 28 20 29 20 10 0 -36 -16 -67 -59 -117 -62
-71 -81 -115 -81 -185 0 -33 5 -72 10 -87 19 -50 -17 -8 -50 59 -36 73 -37 79
-5 111 17 17 25 36 25 61 0 42 -11 44 -41 8 l-22 -28 5 91 c6 105 26 157 72
185 34 21 71 24 110 9z m383 -87 c-3 -21 -10 -51 -17 -68 -6 -16 -11 -32 -10
-33 1 -2 -5 -9 -14 -15 -27 -21 -66 -113 -67 -158 l-1 -44 -9 54 c-11 63 2
151 28 190 23 36 84 111 91 111 2 0 2 -17 -1 -37z m494 -37 c-19 -44 -105
-146 -122 -146 -5 0 -9 11 -9 23 0 16 16 37 48 64 26 22 58 59 72 81 31 50 38
38 11 -22z m-786 34 c3 -6 -1 -17 -9 -26 -9 -8 -16 -30 -16 -49 0 -18 -7 -46
-15 -62 -36 -69 -65 -146 -71 -191 -6 -51 16 -163 39 -190 10 -13 9 -14 -10
-3 -28 15 -76 85 -93 135 -14 45 -8 122 14 163 8 15 34 51 59 80 30 35 49 68
57 103 11 47 30 64 45 40z m584 -15 c80 -41 71 -209 -15 -285 -21 -19 -24 -19
-11 -4 26 31 57 118 57 159 0 87 -51 140 -113 117 l-32 -11 24 19 c28 24 52
25 90 5z m431 5 c0 -5 -11 -10 -25 -10 -30 0 -65 -32 -65 -59 0 -65 59 -108
133 -98 38 5 38 5 21 -14 -26 -29 -138 -81 -186 -86 -61 -7 -98 23 -98 78 0
32 6 46 30 67 17 15 50 46 74 69 53 52 116 81 116 53z m-450 -38 c16 -13 24
-32 28 -70 7 -73 -13 -135 -60 -185 -22 -23 -32 -31 -24 -17 30 46 15 134 -28
169 -31 26 -14 94 27 111 31 12 32 12 57 -8z m-566 -90 c-10 -48 13 -104 66
-164 l50 -56 -51 -25 -50 -24 -24 31 c-29 38 -55 98 -55 126 0 20 56 140 65
140 2 0 2 -13 -1 -28z m1769 -38 c20 -20 49 -88 95 -224 3 -9 -4 -7 -20 8 -13
12 -28 19 -31 15 -12 -11 -8 -21 13 -26 33 -9 23 -27 -15 -27 -25 0 -44 -8
-61 -25 -22 -22 -25 -33 -22 -75 1 -28 1 -50 -2 -50 -3 0 -44 5 -92 11 -60 7
-114 7 -179 0 -51 -6 -94 -9 -96 -8 -4 5 118 92 154 111 47 24 134 21 167 -5
39 -31 32 -2 -10 37 -19 19 -43 34 -52 34 -11 -1 -8 -6 11 -16 15 -8 27 -16
27 -17 0 -1 -20 -1 -44 1 -56 5 -124 -25 -220 -97 -69 -51 -102 -66 -74 -33 8
9 26 37 40 62 55 97 124 139 223 140 43 0 75 -7 113 -25 l53 -25 -7 23 c-9 29
-33 56 -66 73 -37 19 -139 18 -164 -2 -19 -15 -19 -16 1 -9 66 23 147 13 188
-23 28 -24 20 -32 -15 -14 -47 24 -161 22 -212 -3 -52 -25 -96 -70 -133 -136
-32 -56 -92 -121 -80 -86 4 10 7 23 7 27 0 5 14 25 31 44 23 27 30 43 27 68
-2 27 2 36 23 50 15 9 32 33 39 52 9 28 17 36 36 36 16 0 24 6 24 18 0 22 104
110 153 130 32 12 40 12 55 1 9 -8 28 -20 40 -27 23 -13 24 -12 17 17 -6 26
-4 29 14 24 11 -3 31 -16 44 -29z m-2315 -63 c10 -6 7 -12 -12 -25 -26 -16
-26 -16 -26 9 0 25 14 32 38 16z m42 -66 c0 -16 -12 -57 -26 -90 -47 -109 -52
-127 -44 -157 9 -28 9 -28 -40 -28 -34 0 -55 -6 -71 -20 l-24 -21 32 16 c39
19 74 19 116 1 69 -29 102 -97 67 -137 l-20 -24 10 28 c27 77 -52 145 -114 96
-20 -16 -26 -29 -26 -60 0 -40 -7 -48 -28 -27 -7 7 -12 8 -12 2 0 -5 -5 -2
-10 6 -7 11 -12 12 -21 3 -17 -17 -2 -33 32 -33 16 0 29 -4 29 -10 0 -5 -4
-10 -8 -10 -5 0 -26 -38 -46 -84 -21 -46 -48 -94 -61 -106 -13 -12 -52 -28
-91 -37 -94 -20 -224 -84 -263 -128 -17 -20 -31 -40 -31 -45 0 -6 16 7 34 28
39 43 108 83 191 112 30 10 55 18 55 16 0 -2 -28 -20 -62 -42 -128 -78 -234
-213 -279 -354 -18 -55 -18 -55 -18 -17 -1 21 6 52 15 69 13 25 14 38 5 74 -6
23 -11 57 -11 74 0 36 -31 102 -38 82 -2 -8 1 -19 7 -25 17 -17 13 -53 -9 -97
-11 -22 -20 -56 -21 -77 0 -21 -6 -63 -12 -94 -10 -47 -14 -54 -25 -43 -19 21
-66 17 -88 -7 l-19 -22 34 18 c32 16 35 16 59 -2 72 -54 22 -168 -52 -120 -60
40 -77 145 -39 244 28 72 107 187 173 253 74 74 140 99 280 109 58 4 115 13
127 19 53 29 68 98 38 182 -35 98 -17 144 71 188 49 25 109 89 130 140 9 20
31 69 50 107 19 39 34 79 34 90 0 17 2 17 10 5 5 -8 10 -28 10 -45z m486 -82
c22 -30 27 -45 25 -83 -2 -40 3 -53 33 -93 l36 -47 -55 27 c-44 22 -59 36 -79
75 -28 54 -43 154 -31 215 l7 38 18 -48 c10 -27 31 -64 46 -84z m-827 62 c58
-30 62 -82 19 -293 l-20 -103 21 -65 c25 -76 26 -96 7 -133 -27 -51 -103 -63
-126 -21 -16 29 -12 92 7 112 22 25 69 24 83 -3 7 -11 14 -18 17 -15 3 3 -2
17 -11 31 -35 53 -110 17 -123 -59 -4 -29 -1 -44 16 -66 28 -38 27 -40 -13
-40 -72 0 -107 64 -91 166 5 37 15 54 46 82 22 20 37 42 34 49 -2 8 -1 12 4 8
16 -9 19 19 6 51 -13 32 -13 32 18 30 24 -1 34 5 50 32 11 19 16 40 12 50 -3
9 -7 19 -8 22 -1 3 11 7 27 10 32 5 41 23 15 28 -8 1 -26 -6 -39 -18 -12 -11
-34 -20 -47 -20 -19 0 -23 5 -23 29 0 21 -6 32 -20 36 -29 9 -25 47 8 77 44
41 83 48 131 23z m1595 -8 c12 -9 18 -25 17 -43 0 -16 -2 -78 -4 -137 -2 -101
-4 -110 -26 -128 -13 -10 -33 -19 -45 -19 -21 1 -21 1 -1 12 33 18 45 40 45
83 0 33 -7 49 -34 78 -31 34 -38 37 -87 37 -82 0 -134 -38 -139 -100 -5 -53 1
-79 25 -114 31 -46 20 -46 -33 -1 -66 57 -67 124 -2 213 38 53 90 92 153 113
62 22 107 24 131 6z m300 -58 c13 -39 0 -77 -34 -94 -35 -18 -66 -7 -80 28 -8
20 -9 20 -9 3 -1 -27 28 -56 54 -56 17 0 24 -7 28 -30 7 -32 41 -48 74 -35 16
6 15 8 -7 25 -23 18 -24 19 -6 26 25 9 56 -27 49 -57 -9 -33 -43 -46 -138 -52
-79 -5 -165 -22 -216 -42 -14 -5 -12 2 7 42 13 26 26 75 29 108 14 138 21 159
49 136 23 -20 75 -16 104 7 38 30 84 25 96 -9z m-1104 -167 c33 -22 90 -50
127 -62 104 -33 101 -31 83 -38 -8 -3 -29 -16 -46 -29 -49 -37 -77 -31 -151
34 -58 51 -183 219 -183 246 0 6 25 -17 55 -51 31 -33 82 -79 115 -100z m503
107 c-30 -42 -38 -63 -41 -109 -4 -53 -2 -60 28 -94 18 -20 52 -46 74 -58 78
-39 91 -62 59 -108 l-18 -25 -5 30 c-7 41 -60 75 -117 75 -33 0 -53 7 -79 28
-18 15 -34 33 -34 41 0 7 -11 26 -25 43 -18 21 -25 41 -25 72 0 54 13 70 75
90 28 9 70 28 95 41 25 13 46 24 47 25 2 0 -14 -23 -34 -51z m-1433 -26 c0
-27 4 -33 22 -33 22 0 22 0 -4 -26 -14 -15 -31 -23 -37 -20 -16 10 -31 75 -24
107 5 24 8 26 24 16 12 -8 19 -23 19 -44z m654 26 c35 -16 50 -59 41 -116 -4
-27 -10 -52 -15 -58 -23 -30 -44 -126 -43 -200 1 -75 13 -122 58 -227 9 -21
-10 -23 -67 -8 -53 15 -96 55 -125 117 -14 29 -29 50 -34 47 -5 -3 -9 3 -9 14
0 10 -11 45 -24 78 -18 43 -30 60 -48 64 -17 4 -24 14 -26 39 -4 40 12 61 49
61 49 0 76 -64 44 -106 -8 -10 -15 -23 -15 -28 0 -13 54 4 68 21 16 23 15 75
-3 99 -21 27 -19 31 15 26 34 -5 60 12 60 39 0 16 -3 17 -19 8 -24 -16 -49 -5
-61 26 -27 72 74 140 154 104z m395 -8 c21 -11 61 -23 89 -27 58 -7 64 -12 80
-70 19 -67 16 -84 -16 -84 -70 0 -137 40 -179 109 -21 32 -32 91 -18 91 3 0
23 -9 44 -19z m1815 -6 c9 -13 16 -31 16 -39 0 -8 14 -24 30 -36 17 -12 37
-34 45 -50 9 -17 26 -31 44 -35 31 -7 52 -42 72 -128 15 -60 7 -68 -20 -23
-12 19 -38 48 -57 65 -41 37 -152 94 -212 110 -37 10 -43 16 -53 54 -19 69 11
101 97 106 13 1 28 -9 38 -24z m-1226 -4 c10 -6 5 -10 -17 -14 -46 -10 -37
-23 13 -19 36 3 46 0 60 -19 20 -29 20 -58 0 -87 -17 -24 -53 -29 -72 -10 -20
20 -14 -7 7 -30 12 -14 30 -22 52 -22 l34 -1 -40 -23 c-22 -13 -52 -33 -66
-45 l-26 -20 -19 47 c-25 63 -25 153 0 181 11 12 17 24 14 27 -3 3 -15 -7 -27
-22 -16 -20 -21 -41 -21 -86 0 -33 5 -69 11 -81 11 -20 10 -20 -16 3 -53 49
-70 117 -41 169 25 45 116 76 154 52z m-792 -117 c-1 -1 -18 -4 -38 -7 l-38
-6 0 66 0 66 39 -59 c21 -32 38 -59 37 -60z m1288 75 c37 -29 36 -86 -1 -121
-49 -45 -72 -51 -228 -58 -82 -4 -159 -10 -170 -15 -16 -5 -17 -5 -5 4 36 26
155 50 271 55 62 2 118 24 102 39 -3 4 -1 7 5 7 7 0 12 13 12 28 0 50 -43 82
-77 57 -15 -12 -16 -17 -5 -34 10 -18 10 -21 -3 -21 -22 0 -39 48 -24 66 18
22 92 18 123 -7z m806 -5 c0 -8 -4 -12 -10 -9 -5 3 -10 10 -10 16 0 5 5 9 10
9 6 0 10 -7 10 -16z m-2860 -23 c0 -27 -26 -50 -50 -44 -11 3 -20 8 -20 12 1
5 55 45 68 50 1 1 2 -8 2 -18z m779 -76 c17 -8 35 -30 44 -53 28 -70 5 -112
-105 -189 -43 -30 -86 -65 -97 -78 -19 -26 -31 -23 -31 6 0 11 9 19 22 21 20
3 68 59 68 79 0 19 -59 8 -76 -13 -16 -22 -16 -22 -10 20 5 36 36 113 52 131
2 2 13 -8 25 -22 11 -15 29 -27 40 -27 26 0 24 18 -2 22 -50 7 -49 80 1 105
32 16 35 16 69 -2z m-869 -43 c0 -21 -2 -24 -10 -12 -13 20 -13 53 0 45 6 -3
10 -18 10 -33z m982 -47 c19 -41 -16 -109 -98 -196 -70 -74 -104 -123 -104
-153 0 -28 -23 -29 -47 -2 -46 54 -20 108 91 190 89 66 120 111 114 165 -3 35
-2 38 15 29 10 -5 23 -20 29 -33z m258 22 c19 -6 51 -24 70 -38 59 -45 79 -52
130 -45 44 6 50 4 69 -20 12 -15 21 -41 21 -58 0 -45 -44 -129 -91 -170 -42
-39 -66 -47 -54 -18 16 36 17 127 3 162 -48 114 -194 182 -288 133 -49 -26
-100 -96 -100 -139 0 -31 -2 -34 -19 -24 -11 5 -29 10 -41 10 -21 0 -21 1 4
31 29 34 56 92 56 118 0 14 7 17 30 13 18 -2 40 2 55 12 25 16 90 43 110 45 6
0 26 -5 45 -12z m666 -100 c-216 -137 -289 -201 -346 -306 -23 -44 -56 -92
-73 -108 l-30 -28 31 40 c17 22 60 96 96 165 94 176 147 225 266 240 77 10 77
10 56 -3z m-1518 -23 c21 -15 22 -17 8 -33 -15 -16 -14 -19 4 -36 11 -10 20
-29 20 -42 0 -20 -5 -23 -40 -23 -70 0 -170 -70 -170 -119 0 -23 28 -61 54
-71 21 -8 21 -8 1 -15 -58 -20 -74 -28 -71 -34 2 -3 -16 -4 -40 -3 -51 5 -195
-23 -237 -44 -16 -9 -31 -13 -33 -11 -6 6 118 132 143 145 17 10 19 7 15 -26
l-3 -37 31 34 c21 22 30 40 27 53 -4 15 5 24 46 42 76 34 113 69 148 144 48
101 55 106 97 76z m1294 -41 c-42 -43 -75 -93 -126 -191 -39 -73 -79 -140 -89
-150 -17 -15 -16 -12 3 21 12 21 28 69 36 108 15 77 52 153 94 194 25 24 113
74 132 75 3 0 -19 -26 -50 -57z m408 37 c53 -27 91 -85 78 -121 l-9 -26 -31
28 c-16 16 -34 30 -39 30 -5 1 -13 3 -19 4 -5 1 -19 3 -31 4 -15 1 -19 6 -15
17 8 22 -19 64 -42 64 -15 0 -15 2 -2 10 24 16 68 12 110 -10z m13 -113 c31
-21 42 -39 52 -86 l7 -35 -46 41 c-26 23 -72 52 -102 64 -44 18 -52 25 -37 31
31 13 97 5 126 -15z m-1113 -7 c24 -24 26 -53 4 -74 -16 -17 -26 -19 -59 -17
-16 2 -17 0 -5 -8 12 -8 12 -12 -2 -28 -9 -10 -19 -30 -23 -44 l-6 -25 -50 24
c-55 28 -57 36 -22 110 35 74 119 106 163 62z m-396 -126 c57 -27 42 -32 -25
-9 -39 13 -42 13 -25 0 11 -8 46 -20 77 -27 l58 -12 -40 -17 c-21 -10 -39 -20
-39 -22 0 -3 20 -5 45 -5 55 -1 77 -12 106 -54 17 -23 23 -46 24 -84 0 -76
-15 -86 -63 -42 -106 96 -236 165 -346 184 -91 16 -129 38 -134 78 -7 58 60
98 155 95 53 -2 67 1 75 15 8 15 14 11 45 -30 23 -30 53 -54 87 -70z m251 -58
c49 -21 69 -56 62 -113 -6 -55 7 -97 33 -109 17 -8 13 -12 -29 -36 l-48 -26 9
51 c20 107 -12 205 -75 232 -27 12 -29 14 -9 15 12 0 38 -6 57 -14z m-78 -16
c18 -10 39 -33 48 -49 21 -42 20 -113 -4 -142 l-18 -23 5 33 c5 39 -21 111
-51 139 -12 11 -35 26 -52 33 l-30 12 25 7 c38 12 43 11 77 -10z m77 -54 c20
-43 21 -118 0 -157 -13 -26 -60 -56 -91 -60 -5 -1 -29 -9 -55 -19 -71 -27 -58
-15 27 25 77 37 99 59 115 115 7 25 5 46 -9 86 -19 58 -13 64 13 10z m2411
-26 c-9 -80 -79 -224 -140 -289 -68 -72 -121 -95 -225 -95 -108 -1 -178 22
-231 75 -48 48 -52 72 -5 31 50 -43 98 -57 206 -56 107 0 159 18 223 74 49 43
72 82 110 192 54 154 75 176 62 68z m-2765 13 c87 -44 249 -167 236 -180 -3
-3 -11 -1 -19 5 -7 6 -32 14 -55 18 -28 4 -54 18 -82 44 -22 20 -63 50 -92 65
-44 24 -65 29 -133 30 -44 1 -93 7 -110 14 l-30 13 25 14 c18 10 50 14 110 12
73 -3 95 -8 150 -35z m-261 -14 c38 -14 39 -19 2 -44 -60 -39 -87 -131 -61
-199 5 -14 24 -35 42 -47 l33 -21 -39 6 c-45 6 -73 29 -92 73 -28 66 -7 170
45 222 24 24 27 25 70 10z m271 -64 c19 -13 46 -34 58 -48 l24 -25 -85 -7
c-93 -8 -102 -6 -110 26 -5 18 -2 20 18 17 33 -7 54 7 38 23 -10 10 -18 10
-37 -1 -23 -12 -28 -10 -61 21 l-36 34 33 5 c38 7 108 -13 158 -45z m778 18
c6 -20 10 -38 9 -40 -8 -7 -77 11 -77 20 0 12 40 57 50 57 4 0 12 -17 18 -37z
m-962 -49 c-11 -7 -30 -14 -42 -14 -31 0 -48 -24 -35 -49 13 -24 73 -71 90
-71 6 0 -1 -16 -16 -35 -31 -39 -41 -42 -84 -19 -85 43 -70 177 25 235 l31 19
25 -26 c24 -25 25 -25 6 -40z m985 -19 c27 -14 69 -68 69 -88 0 -5 -19 7 -41
27 -52 44 -115 66 -198 67 -54 1 -60 3 -36 10 44 12 171 2 206 -16z m-34 -39
c45 -22 68 -43 103 -91 14 -18 13 -18 -15 2 -59 40 -101 56 -165 63 -36 4 -85
13 -110 20 -88 25 -136 1 -221 -110 -21 -27 -30 -32 -39 -23 -10 9 -5 20 21
53 38 48 119 97 181 110 73 15 191 4 245 -24z m145 -23 c58 -59 95 -139 103
-218 l6 -60 -22 40 c-12 22 -35 57 -51 77 -16 20 -40 69 -53 109 -14 39 -30
78 -36 85 -6 8 -7 14 -2 14 5 0 30 -21 55 -47z m-733 8 c10 -7 8 -12 -10 -25
-18 -12 -25 -13 -31 -3 -20 31 6 50 41 28z m138 -46 c-19 -16 -68 -44 -107
-62 -67 -30 -71 -31 -58 -10 8 12 48 39 88 59 41 21 81 44 89 53 12 11 17 12
20 3 2 -6 -12 -26 -32 -43z m679 -17 c31 -44 44 -95 43 -163 l-1 -50 -9 58
c-10 66 -38 136 -75 185 -24 30 -24 32 -5 20 12 -7 33 -30 47 -50z m-481 -13
c-22 -19 -43 -34 -46 -35 -3 0 -26 -25 -50 -55 -24 -30 -45 -53 -47 -51 -7 8
31 83 56 110 25 27 94 65 117 66 6 0 -8 -16 -30 -35z m-201 -6 c-10 -11 -46
-37 -79 -56 -33 -19 -81 -52 -107 -74 l-47 -39 10 29 c6 17 18 36 26 43 12 10
195 111 212 117 2 0 -4 -8 -15 -20z m-14 -45 c0 -22 -46 -74 -112 -125 -42
-33 -87 -72 -99 -87 l-22 -27 6 40 c9 56 32 82 128 147 81 55 99 65 99 52z
m-1149 -114 c18 0 28 -4 24 -10 -10 -16 -61 -11 -76 7 -12 15 -12 16 4 10 10
-4 32 -7 48 -7z m1375 -373 c23 -20 28 -34 32 -86 4 -62 -9 -115 -32 -124 -7
-3 -31 30 -60 84 -50 95 -53 123 -13 139 34 14 44 12 73 -13z m-206 -27 c39
-49 53 -134 39 -232 -4 -34 -9 -35 -39 -3 -23 24 -23 25 -5 45 11 12 13 20 6
20 -8 0 -9 5 -1 19 15 30 12 60 -10 88 -11 14 -20 35 -20 46 0 26 -5 20 -14
-16 -4 -18 -3 -26 3 -23 17 11 44 -41 37 -69 -4 -14 -11 -25 -16 -25 -6 0 -10
1 -10 3 0 1 -7 20 -15 42 -8 23 -14 31 -15 20 0 -11 9 -35 20 -53 24 -39 24
-42 5 -42 -18 0 -55 70 -55 104 0 14 5 46 12 71 15 57 36 58 78 5z m114 -130
c6 -42 6 -44 -9 -26 -8 11 -15 38 -15 60 1 51 15 31 24 -34z m36 -17 c21 -48
20 -64 -4 -44 -11 9 -28 91 -19 91 1 0 11 -21 23 -47z m-226 -9 c3 -8 2 -12
-4 -9 -6 3 -10 10 -10 16 0 14 7 11 14 -7z m191 -73 c-4 -9 -9 -48 -12 -87 -5
-57 -2 -79 14 -115 24 -53 161 -238 199 -268 44 -34 2 -25 -47 11 -44 32 -73
63 -96 102 -17 30 -16 1 1 -33 39 -74 145 -133 260 -144 64 -6 64 3 1 23 -51
16 -113 59 -153 105 -35 39 -67 95 -55 95 19 0 163 -93 233 -150 118 -95 219
-170 264 -196 25 -15 34 -24 23 -24 -10 0 -49 18 -85 39 -37 21 -92 44 -122
51 -114 26 -166 43 -229 75 -130 65 -198 151 -240 304 -23 82 -24 84 -100 165
-31 32 -48 56 -39 53 9 -3 18 -1 20 4 6 19 87 -71 99 -111 16 -54 25 -42 10
13 -10 33 -10 54 -2 85 11 39 13 41 37 30 17 -8 23 -17 19 -27z m55 -15 c0
-13 -7 -40 -15 -59 -19 -46 -19 -108 -1 -152 20 -46 11 -45 -13 3 -27 54 -34
113 -21 177 9 44 15 55 31 55 13 0 19 -7 19 -24z m-248 -111 c65 -71 70 -155
15 -259 -21 -38 -37 -82 -37 -98 0 -72 56 -134 149 -167 71 -25 72 -31 5 -24
-94 8 -135 22 -171 58 -42 42 -44 90 -8 195 38 111 34 150 -25 271 -67 137
-66 159 2 94 28 -28 60 -59 70 -70z m277 38 c-1 -38 -4 -95 -8 -128 l-6 -60
-17 54 c-10 29 -18 60 -18 69 0 28 32 132 41 132 5 0 9 -30 8 -67z m76 -78
c40 -23 114 -119 102 -131 -3 -3 -12 7 -20 23 -19 35 -62 76 -104 97 -18 9
-33 21 -33 26 0 15 9 12 55 -15z m11 -51 c29 -21 139 -172 132 -180 -2 -2 -30
30 -62 72 -32 41 -78 88 -102 103 -25 15 -42 30 -38 33 8 9 34 -1 70 -28z
m-37 -18 c29 -15 127 -124 119 -132 -3 -2 -35 23 -73 56 -37 33 -72 60 -76 60
-5 0 -9 7 -9 15 0 19 4 19 39 1z m21 -72 c0 -2 -13 2 -30 11 -16 9 -30 20 -30
26 0 6 14 1 30 -11 17 -12 30 -23 30 -26z m-243 -66 c68 -139 193 -203 433
-223 121 -11 134 -20 27 -20 -63 0 -108 -6 -144 -18 -51 -18 -54 -18 -110 2
-32 11 -91 29 -130 41 -53 15 -82 30 -107 55 -36 36 -54 90 -41 122 6 14 10
10 19 -20 14 -47 58 -102 97 -123 32 -16 274 -67 292 -61 6 2 -30 11 -79 21
-202 41 -228 52 -271 116 -18 25 -23 47 -23 91 0 33 4 59 8 59 4 0 17 -19 29
-42z m-942 -69 c58 -44 162 -98 207 -109 l33 -8 -40 -1 c-57 -1 -118 30 -200
101 -108 95 -108 98 0 17z m100 -112 c54 -30 184 -30 308 1 71 18 99 20 150
13 34 -5 64 -7 65 -6 2 2 -8 11 -23 21 -39 26 -136 43 -240 44 -72 1 -85 3
-65 12 38 16 212 3 263 -20 47 -21 102 -65 118 -93 9 -17 7 -18 -18 -8 -36 14
-154 14 -214 0 -26 -6 -102 -14 -171 -17 -112 -6 -128 -5 -171 14 -50 22 -94
64 -128 122 -20 34 -20 34 33 -13 29 -26 71 -57 93 -70z m795 8 c18 -22 93
-53 181 -75 46 -12 88 -25 93 -30 4 -4 -17 -11 -47 -15 -42 -5 -67 -3 -102 10
-81 31 -134 72 -155 118 -26 57 -26 96 0 43 11 -21 24 -44 30 -51z m-326 -71
c33 -8 84 -28 111 -43 28 -16 77 -43 110 -62 33 -18 84 -43 113 -55 l53 -21
-48 -7 c-76 -10 -138 14 -245 94 -51 39 -115 79 -143 89 -61 24 -35 27 49 5z
m-69 -28 c39 -18 88 -48 110 -66 22 -18 66 -50 98 -71 57 -37 58 -38 32 -45
-14 -3 -45 -3 -68 0 -23 4 -60 8 -82 10 -50 3 -126 43 -193 102 -28 24 -70 56
-94 69 l-43 25 41 0 c66 0 173 -59 238 -133 30 -34 57 -59 60 -56 13 12 -114
132 -174 164 -64 34 -64 35 -30 35 20 0 66 -15 105 -34z m-285 -5 c20 -6 15
-9 -30 -14 -42 -5 -58 -3 -69 8 -14 13 -10 15 29 14 25 -1 56 -4 70 -8z m120
-57 c17 -15 29 -28 27 -31 -3 -2 -29 5 -58 17 -30 11 -75 20 -101 20 -27 0
-48 5 -48 10 0 6 31 10 74 10 66 0 78 -3 106 -26z m1530 -6 c10 -6 -1 -6 -30
-2 -60 8 -88 24 -30 17 25 -3 52 -10 60 -15z m-1539 -29 c52 -16 103 -37 113
-44 39 -30 3 -28 -92 3 -53 18 -106 32 -118 32 -11 0 -29 9 -39 20 -18 20 -17
20 12 20 17 0 73 -14 124 -31z m1343 21 c7 0 40 -18 74 -39 33 -22 63 -38 66
-35 3 2 4 1 1 -3 -12 -15 111 -86 254 -145 68 -28 84 -37 56 -33 -91 15 -195
57 -275 110 -73 49 -88 55 -134 55 -37 0 -68 -9 -116 -32 -60 -29 -74 -32
-168 -33 -57 -1 -105 2 -108 7 -3 4 -14 8 -25 8 -37 0 -11 16 29 18 62 4 100
18 168 63 70 45 131 71 152 64 8 -3 19 -5 26 -5z m421 -6 c-55 -21 -125 -33
-125 -23 0 5 -10 10 -22 10 -28 2 115 26 157 27 29 1 28 0 -10 -14z m180 6
c-16 -4 -56 -17 -87 -29 -57 -21 -161 -30 -142 -12 20 20 142 50 199 49 49 0
54 -2 30 -8z m-437 -25 c12 -12 -36 -4 -54 10 -17 13 -16 14 15 5 18 -5 36
-12 39 -15z m602 8 c-1 -12 -152 -83 -175 -83 -28 0 -145 39 -119 39 11 1 52
12 90 26 67 23 205 36 204 18z m167 -17 c1 -1 -47 -21 -106 -45 -120 -47 -173
-58 -211 -42 -15 6 -19 10 -9 10 9 1 43 15 75 33 85 45 131 57 194 51 30 -3
56 -7 57 -7z m-2245 -45 c32 -12 74 -21 95 -21 21 -1 52 -7 68 -14 l30 -13
-48 -8 c-51 -8 -154 8 -197 30 -14 7 -36 24 -48 38 l-24 25 34 -8 c18 -4 59
-18 90 -29z m1685 4 c37 -16 96 -55 91 -61 -2 -2 -25 3 -51 11 -25 7 -83 19
-129 26 -47 6 -91 18 -102 28 -17 15 -16 16 30 21 54 6 107 -3 161 -25z m798
7 l60 -7 -29 -22 c-35 -28 -41 -28 -126 -2 -38 11 -87 19 -111 17 -40 -3 -36
-4 35 -16 44 -7 81 -14 83 -16 2 -1 -44 -51 -103 -110 -96 -97 -115 -111 -207
-155 -102 -49 -187 -84 -187 -77 0 7 126 92 185 124 44 24 52 32 30 27 -16 -3
-76 -37 -133 -76 -114 -78 -179 -110 -285 -139 -91 -25 -92 -25 -32 8 28 16
92 56 144 90 51 34 98 62 104 62 6 0 8 3 5 6 -10 10 -74 -23 -144 -74 -88 -63
-174 -106 -253 -127 -64 -16 -95 -14 -49 4 14 5 59 31 99 57 41 27 101 63 134
81 33 18 54 33 47 33 -20 0 -91 -38 -160 -87 -111 -79 -242 -125 -347 -122
-26 1 -24 2 15 13 54 15 154 65 224 112 78 51 162 81 293 104 159 28 195 36
288 66 85 27 250 102 242 110 -3 3 -27 -6 -54 -19 -94 -47 -316 -111 -444
-127 -41 -5 -95 -12 -120 -16 -51 -7 -55 -5 -163 73 -45 33 -67 43 -95 42
l-36 -1 36 -7 c30 -6 107 -53 153 -92 12 -11 -22 -3 -141 33 -96 29 -129 48
-84 48 11 0 23 5 27 11 4 8 -1 9 -17 4 -13 -3 -32 -9 -42 -12 -9 -2 -34 1 -55
8 l-37 13 70 22 c111 36 141 33 212 -24 68 -55 132 -88 189 -96 30 -5 24 -2
-22 14 -59 19 -104 47 -189 114 -44 36 -99 38 -189 6 -72 -24 -92 -25 -142 -3
-36 16 -37 17 -14 21 14 2 57 18 95 34 100 44 140 43 212 -8 175 -124 380
-172 548 -129 l50 12 -65 -4 c-80 -6 -170 15 -294 68 -126 55 -163 91 -83 82
64 -7 140 -30 264 -79 62 -24 127 -44 145 -43 29 0 28 2 -17 14 -49 13 -180
69 -140 60 56 -13 168 -24 230 -23 l70 1 -95 8 c-145 13 -300 55 -300 81 0 14
28 9 93 -17 34 -14 91 -30 127 -35 84 -12 262 -19 230 -9 -14 4 -62 7 -107 8
-94 1 -116 21 -25 22 37 0 50 3 38 8 -23 9 -14 16 32 26 17 3 32 11 32 16 0
27 129 32 295 11z m-1680 -71 l60 -21 -52 5 c-29 3 -81 1 -116 -5 -52 -9 -71
-9 -112 5 -82 27 -83 27 -55 36 42 14 210 2 275 -20z m1624 -34 c-25 -23 -66
-53 -90 -66 l-44 -25 44 52 c53 64 78 82 111 82 24 -1 22 -3 -21 -43z m-2139
21 c-32 -14 -256 -16 -269 -3 -6 7 41 11 142 12 115 1 146 -1 127 -9z m290
-15 l45 -21 -48 -7 c-51 -8 -138 -2 -227 17 l-55 11 40 14 c57 18 189 11 245
-14z m246 -45 c120 -84 269 -137 386 -138 53 0 73 -16 31 -24 -125 -23 -226
-10 -334 44 -79 40 -223 147 -206 153 33 14 68 4 123 -35z m116 11 c51 -17
197 -97 223 -122 19 -18 -93 1 -162 29 -57 22 -203 108 -203 119 0 7 89 -9
142 -26z m204 -5 c133 -61 224 -95 334 -124 l105 -28 -61 -1 c-37 -1 -90 8
-130 20 -66 20 -321 126 -374 155 -25 13 -25 13 11 14 21 0 69 -15 115 -36z
m-931 -8 c33 -9 94 -15 135 -15 41 0 86 -4 100 -10 19 -9 -5 -10 -105 -8 -106
3 -142 8 -192 26 -66 25 -86 45 -30 30 17 -4 59 -15 92 -23z m112 13 c21 -6 8
-8 -47 -6 -42 2 -85 9 -95 16 -16 10 -8 11 47 6 37 -4 80 -11 95 -16z m389
-15 c21 -15 54 -40 72 -55 91 -80 253 -134 377 -126 57 4 71 2 50 -4 -53 -16
-197 -22 -259 -10 -75 14 -156 51 -222 101 -28 22 -75 53 -104 69 l-52 29 28
10 c46 17 69 14 110 -14z m-102 -35 c33 -17 84 -48 111 -69 63 -48 144 -86
215 -101 76 -16 240 -6 317 19 35 11 60 16 57 11 -7 -13 10 -11 23 2 6 6 27 9
47 7 l38 -3 -66 -43 c-36 -24 -90 -54 -119 -68 -62 -28 -213 -64 -272 -64 -97
0 -501 115 -458 131 26 10 89 -4 183 -41 41 -15 93 -34 115 -41 57 -19 238
-16 295 5 25 8 33 14 19 11 -172 -31 -245 -24 -436 41 -120 40 -143 45 -192
39 -50 -5 -63 -2 -121 26 l-65 32 45 9 c68 13 189 -6 257 -41 32 -15 92 -41
133 -57 72 -27 82 -28 251 -29 98 0 172 -3 165 -7 -6 -4 -7 -8 -2 -8 16 0 136
63 148 78 11 13 10 15 -2 9 -8 -3 -44 -18 -80 -34 -56 -24 -78 -28 -160 -28
-84 0 -102 3 -160 30 -36 16 -87 43 -115 59 -27 16 -104 58 -170 93 -93 48
-114 63 -91 63 16 0 56 -14 90 -31z m601 -34 c116 -50 125 -55 80 -49 -31 4
-81 23 -130 50 -151 82 -142 82 50 -1z m-1045 24 c19 -6 114 -15 210 -19 176
-9 254 -24 281 -56 15 -19 3 -18 -66 6 -70 24 -104 25 -208 4 -93 -19 -122
-13 -207 40 -60 39 -61 41 -10 25z m413 -79 c35 -11 88 -25 117 -30 28 -5 89
-30 133 -56 l82 -45 -49 6 c-26 4 -91 25 -145 47 -53 22 -125 49 -161 60 -36
11 -74 24 -85 29 -44 17 44 9 108 -11z m946 -83 c-30 -18 -78 -48 -107 -66
-79 -49 -191 -82 -299 -88 -51 -3 -93 -3 -93 0 0 3 32 13 72 22 79 18 179 63
277 125 60 37 70 40 135 40 l70 0 -55 -33z"/>
<path d="M3293 3483 c9 -2 25 -2 35 0 9 3 1 5 -18 5 -19 0 -27 -2 -17 -5z"/>
<path d="M3236 3471 c-4 -5 3 -7 14 -4 23 6 26 13 6 13 -8 0 -17 -4 -20 -9z"/>
<path d="M3088 663 c7 -3 16 -2 19 1 4 3 -2 6 -13 5 -11 0 -14 -3 -6 -6z"/>
<path d="M2948 3559 c-3 -30 -6 -34 -31 -34 -23 1 -25 -1 -13 -13 11 -11 18
-11 35 -3 24 13 38 58 23 73 -7 7 -12 0 -14 -23z"/>
<path d="M3035 3200 c-7 -12 32 -12 60 0 16 7 13 9 -17 9 -20 1 -40 -3 -43 -9z"/>
<path d="M2935 3188 c-97 -24 -205 -59 -205 -67 0 -5 32 2 70 15 39 13 101 29
138 35 37 7 71 16 77 21 12 11 -29 9 -80 -4z"/>
<path d="M1944 2975 c-17 -42 31 -95 86 -95 24 0 80 51 80 72 0 7 -12 -2 -26
-19 -31 -40 -82 -45 -114 -13 -24 24 -25 34 -4 54 14 15 14 16 -1 16 -8 0 -18
-7 -21 -15z"/>
<path d="M3554 2698 c14 -93 13 -103 -11 -101 -29 3 -31 -22 -4 -37 11 -5 35
-10 54 -10 19 0 40 -7 47 -15 15 -18 30 -11 30 16 0 15 -7 19 -36 19 l-36 0
31 35 c23 26 31 46 31 73 l0 37 -20 -33 c-11 -18 -20 -37 -20 -43 0 -6 -4 -7
-10 -4 -5 3 -10 15 -10 27 0 23 -30 78 -43 78 -5 0 -6 -19 -3 -42z"/>
<path d="M2055 2368 c-1 -13 -4 -33 -8 -45 -9 -25 28 -67 51 -58 7 3 27 5 43
5 41 0 36 11 -16 40 -31 17 -45 31 -47 49 -4 31 -23 38 -23 9z"/>
<path d="M1532 2226 c-6 -13 -37 -38 -69 -56 -63 -36 -109 -74 -125 -105 -6
-11 6 -3 26 17 20 21 67 55 105 78 39 22 73 49 76 61 10 30 0 33 -13 5z"/>
<path d="M2340 2176 c0 -8 -3 -21 -6 -30 -3 -9 -2 -16 4 -16 13 0 22 49 11 56
-5 3 -9 -1 -9 -10z"/>
<path d="M766 1875 c-44 -117 -79 -195 -94 -210 l-25 -25 69 1 c66 0 68 1 47
16 -27 18 -29 40 -9 88 15 35 15 35 79 35 73 0 85 -8 94 -65 5 -32 2 -40 -18
-56 -24 -19 -24 -19 50 -19 l74 0 -21 23 c-13 14 -43 93 -78 210 -77 251 -76
251 -168 2z m129 -46 l7 -29 -66 0 -66 0 35 98 c19 53 35 99 36 102 1 7 46
-135 54 -171z"/>
<path d="M3160 2020 c0 -25 4 -30 25 -30 21 0 25 5 25 30 0 25 -4 30 -25 30
-21 0 -25 -5 -25 -30z"/>
<path d="M2878 1983 c7 -3 16 -2 19 1 4 3 -2 6 -13 5 -11 0 -14 -3 -6 -6z"/>
<path d="M2381 1939 c-1 -9 -15 -22 -32 -30 -63 -25 -88 -149 -44 -216 25 -37
79 -56 134 -47 25 4 54 6 65 5 11 -2 17 2 14 11 -3 7 4 32 14 56 45 100 -17
212 -116 212 -13 0 -27 6 -29 13 -4 7 -6 6 -6 -4z m86 -61 c21 -23 29 -129 12
-169 -23 -57 -102 -58 -128 -3 -14 32 -14 126 0 158 14 30 39 42 51 24 6 -10
8 -9 8 4 0 21 32 13 57 -14z"/>
<path d="M2412 1850 c0 -14 2 -19 5 -12 2 6 2 18 0 25 -3 6 -5 1 -5 -13z"/>
<path d="M2780 1928 c-19 -5 -44 -18 -56 -29 -27 -25 -34 -24 -34 6 0 23 -4
25 -40 25 -40 0 -53 -13 -25 -24 18 -7 21 -72 3 -79 -10 -4 -10 -6 0 -6 18 -1
16 -131 -3 -158 -14 -20 -13 -21 28 -25 23 -2 50 -2 60 0 17 4 17 6 -3 24 -17
16 -20 31 -20 98 0 69 3 82 24 104 15 17 34 26 54 26 28 0 32 -4 41 -38 16
-58 5 -181 -16 -198 -16 -12 -10 -13 46 -14 60 0 63 1 49 18 -19 21 -32 72
-18 72 6 0 7 17 4 43 -10 79 -3 101 41 117 36 13 64 -8 71 -57 9 -64 0 -163
-16 -173 -8 -5 -11 -12 -7 -16 10 -10 100 -5 111 6 7 7 4 10 -6 10 -23 0 -34
20 -17 31 8 5 9 9 3 9 -8 0 -13 34 -16 96 -4 88 -6 98 -28 116 -32 26 -83 18
-120 -17 l-27 -25 -11 25 c-6 14 -19 25 -27 25 -9 0 -13 5 -10 10 3 6 5 10 3
9 -2 0 -19 -5 -38 -11z"/>
<path d="M1930 1921 c0 -5 7 -11 15 -15 23 -8 22 -222 -2 -248 -15 -17 -13
-18 47 -18 l64 0 -22 20 c-19 18 -22 31 -22 100 0 68 3 83 23 106 27 31 74 36
94 8 20 -27 18 -203 -2 -210 -32 -13 -12 -24 42 -24 54 0 55 1 40 18 -13 14
-17 39 -17 106 0 108 -16 151 -58 161 -33 7 -63 -4 -99 -38 l-23 -20 0 31 c0
31 -2 32 -40 32 -22 0 -40 -4 -40 -9z"/>
<path d="M3130 1921 c0 -5 7 -11 15 -15 23 -8 22 -222 -2 -248 -15 -17 -13
-18 47 -18 l64 0 -22 20 c-20 19 -22 30 -22 145 l0 125 -40 0 c-22 0 -40 -4
-40 -9z"/>
<path d="M3381 1913 c-56 -29 -74 -63 -74 -133 1 -72 19 -105 71 -127 42 -17
80 -12 129 18 24 15 31 25 24 32 -7 7 -15 6 -25 -2 -52 -43 -128 -25 -145 35
-6 20 -8 41 -5 46 3 4 45 8 95 8 l89 0 0 35 c0 77 -88 125 -159 88z m75 -11
c16 -11 34 -48 34 -71 0 -19 -6 -21 -65 -21 -63 0 -65 1 -65 25 0 47 62 90 96
67z"/>
<path d="M2860 1910 c0 -5 5 -10 11 -10 5 0 7 5 4 10 -3 6 -8 10 -11 10 -2 0
-4 -4 -4 -10z"/>
<path d="M2780 1763 c0 -10 4 -14 8 -8 4 6 11 13 16 18 5 4 2 7 -7 7 -10 0
-17 -8 -17 -17z"/>
<path d="M2921 1763 c0 -6 -4 -20 -7 -30 -5 -14 -4 -15 5 -7 7 7 11 20 8 30
-3 11 -5 14 -6 7z"/>
<path d="M2560 1650 c0 -5 5 -10 11 -10 5 0 7 5 4 10 -3 6 -8 10 -11 10 -2 0
-4 -4 -4 -10z"/>
<path d="M2795 1621 c-3 -5 -1 -12 5 -16 5 -3 10 -2 10 4 0 5 17 12 38 14 l37
4 -42 1 c-23 1 -44 -2 -48 -7z"/>
<path d="M2930 1611 c0 -5 -3 -17 -6 -25 -5 -12 -2 -15 9 -10 9 3 13 12 11 19
-4 8 3 15 18 18 21 4 20 4 -4 6 -16 0 -28 -3 -28 -8z"/>
<path d="M2755 1600 c-4 -6 3 -10 14 -10 25 0 27 6 6 13 -8 4 -17 2 -20 -3z"/>
<path d="M2631 1583 c35 -44 59 -67 59 -55 0 6 -3 12 -7 12 -5 0 -17 14 -28
30 -11 16 -24 30 -29 30 -5 0 -2 -8 5 -17z"/>
<path d="M2893 1565 c0 -8 4 -12 9 -9 5 3 6 10 3 15 -9 13 -12 11 -12 -6z"/>
<path d="M2610 1546 c0 -2 12 -12 28 -21 l27 -18 -19 21 c-17 20 -36 29 -36
18z"/>
<path d="M2854 1518 l-19 -23 23 19 c21 18 27 26 19 26 -2 0 -12 -10 -23 -22z"/>
<path d="M2820 1479 c0 -5 5 -7 10 -4 6 3 10 8 10 11 0 2 -4 4 -10 4 -5 0 -10
-5 -10 -11z"/>
<path d="M2684 1432 c-2 -37 -2 -37 8 -9 6 16 6 33 2 37 -5 5 -10 -7 -10 -28z"/>
<path d="M2828 1335 c-3 -14 -1 -28 3 -31 5 -3 9 9 9 25 0 38 -6 40 -12 6z"/>
<path d="M2809 1258 c4 -28 6 -29 9 -9 2 13 0 27 -5 32 -6 6 -7 -3 -4 -23z"/>
<path d="M2606 1123 c-6 -14 -5 -15 5 -6 7 7 10 15 7 18 -3 3 -9 -2 -12 -12z"/>
<path d="M2802 1102 c1 -18 6 -32 10 -32 5 0 5 12 2 28 -10 39 -15 41 -12 4z"/>
<path d="M2585 1090 c-3 -5 -1 -10 4 -10 6 0 11 5 11 10 0 6 -2 10 -4 10 -3 0
-8 -4 -11 -10z"/>
<path d="M2609 1023 c-12 -16 -12 -17 2 -6 9 7 20 9 24 5 5 -4 5 -1 1 6 -9 16
-11 15 -27 -5z"/>
<path d="M2581 1004 c0 -11 3 -14 6 -6 3 7 2 16 -1 19 -3 4 -6 -2 -5 -13z"/>
<path d="M2835 1011 c-3 -5 2 -17 11 -25 19 -20 25 -20 18 -1 -4 8 -10 15 -16
15 -5 0 -6 5 -3 10 3 6 4 10 1 10 -3 0 -7 -4 -11 -9z"/>
<path d="M2670 996 c0 -2 8 -10 18 -17 15 -13 16 -12 3 4 -13 16 -21 21 -21
13z"/>
<path d="M2577 973 c-4 -3 -7 -11 -7 -17 0 -6 5 -5 12 2 6 6 9 14 7 17 -3 3
-9 2 -12 -2z"/>
<path d="M2600 960 c0 -5 5 -10 10 -10 6 0 10 5 10 10 0 6 -4 10 -10 10 -5 0
-10 -4 -10 -10z"/>
<path d="M1915 894 c-66 -18 -107 -24 -154 -20 -39 2 -58 0 -50 -5 24 -15 118
-10 202 12 45 12 105 25 132 29 l50 8 -45 0 c-25 0 -85 -11 -135 -24z"/>
</g>
</svg>
